<?xml version="1.0" encoding="utf-8"?>
<!-- Generator: Adobe Adobe Illustrator 24.2.0, SVG Export Plug-In . SVG Version: 6.00 Build 0)  -->
<svg version="1.1" id="Layer_1" xmlns="http://www.w3.org/2000/svg" xmlns:xlink="http://www.w3.org/1999/xlink" x="0px" y="0px"
	 width="450px" height="400.87px" viewBox="0 0 450 400.87" style="enable-background:new 0 0 450 400.87;" xml:space="preserve">
<style type="text/css">
	.st0{fill:#090806;}
	.st1{fill:#4D4A48;}
</style>
<g>
	<path d="M373.28,12.11c5.78-3.52,11.8-5.94,18.46-7.59c0.29,1.02,0.75,1.76,0.68,2.46c-2.21,22.16-3.11,44.48-8.13,66.29
		c-3.04,13.2-7.59,25.86-13.21,38.18c-3.41,7.47-6.6,15.06-9.37,22.78c-3.17,8.85-2.54,18.19-2.54,27.42
		c0,12.45,0.2,24.9-0.15,37.34c-0.24,8.28-1.92,16.39-6.08,23.73c-6.17,10.89-12.99,21.35-21.25,30.78
		c-1.99,2.27-4.47,4.11-6.51,6.45c13.78-1.29,27.14-0.17,40.44,2.78c-0.23,0.03-0.47,0.09-0.7,0.07
		c-12.33-1.02-24.53,0.23-36.74,1.89c-14.7,2-29.12,5.16-43.04,10.29c-3.79,1.39-7.32,3.53-10.89,5.46
		c-0.79,0.43-1.27,1.43-1.9,2.16c0.13,0.16,0.26,0.33,0.39,0.49c3.17-0.7,6.32-1.51,9.51-2.07c11.28-1.99,22.5-4.65,33.87-5.67
		c18.74-1.67,37.36-0.32,55.26,6.28c0.59,0.22,1.17,0.47,1.72,0.85c-9.71-1.91-19.48-3.02-29.36-2.77
		c-9.69,0.24-19.58-0.97-28.82,2.97c0.02,0.22,0.04,0.44,0.06,0.66c3.12,0.51,6.31,0.78,9.36,1.58
		c13.06,3.44,24.86,9.67,36.26,16.74c3.2,1.98,6.36,4.03,9.33,6.49c-3.22-1.34-6.41-2.76-9.66-4.02
		c-13.65-5.27-27.24-10.72-41.57-14.01c-7.98-1.83-15.98-1.15-23.96-0.47c-5.1,0.44-10.17,1.35-15.22,2.23
		c-1.47,0.26-3.39,0.38-3.87,3c21.79-2.35,38.16,9.01,54.32,20.9c-10.13-4.77-20.27-9.55-30.34-14.3
		c-13.2,10.3-43.93,58.06-41.32,99.24c-0.14-0.02-0.36,0.02-0.41-0.05c-5.76-9.21-15.05-14.24-23.7-20.05
		c-10.32-6.94-20.91-13.54-30.82-21.02c-13.13-9.92-24.54-21.61-34.09-35.17c-5.67-8.05-12.3-15.43-18.73-23.39
		c-9.64,4.85-18.98,9.56-28.33,14.26c-0.09-0.12-0.18-0.23-0.27-0.35c4.03-2.86,7.95-5.87,12.1-8.53c4.25-2.72,8.52-5.57,13.15-7.47
		c4.53-1.86,9.47-2.99,14.34-3.7c4.95-0.73,10.03-0.56,15.24-1.27c-1.48-0.55-2.92-1.29-4.45-1.61
		c-11.26-2.34-22.63-4.82-34.13-3.28c-8.02,1.08-16,3.29-23.69,5.9c-11.27,3.82-22.27,8.45-33.56,12.57
		c4.34-2.66,8.62-5.43,13.05-7.94c4.53-2.57,9.13-5.03,13.84-7.25c4.63-2.18,9.33-4.32,14.18-5.89c4.91-1.59,10.06-2.47,15.74-3.8
		c-2.63-0.73-4.81-1.73-7.05-1.88c-8.32-0.57-16.67-1.36-24.99-1.13c-9.91,0.27-19.8,1.5-29.78,2.33c4.31-1.2,8.63-2.52,13-3.6
		c13.13-3.26,26.52-4.23,39.94-3.26c9.25,0.67,18.43,2.47,27.62,3.92c7.02,1.1,14.01,2.44,21.38,3.17
		c-1.34-1.01-2.54-2.39-4.05-2.98c-7.6-2.96-15.16-6.16-22.97-8.42c-13.01-3.77-26.27-6.75-39.83-7.71
		c-7.83-0.55-15.73-0.27-23.59-0.36c-0.88-0.01-1.76,0-2.59,0c4.21-2.49,20.99-3.45,42.9-2.37c-1.29-1.12-2.26-1.98-3.24-2.82
		c-9.65-8.15-16.42-18.62-23.41-28.92c-6.83-10.07-9.23-21.44-9.47-33.31c-0.28-13.82-0.24-27.66-0.11-41.48
		c0.09-10.4-2.22-20.18-6.49-29.59c-5.26-11.6-10.55-23.18-14.23-35.42c-4.47-14.87-7.27-30.06-8.78-45.5
		c-0.98-10.07-2.14-20.12-3.11-30.18c-0.23-2.38-0.03-4.81-0.03-7.32C59.84,4.2,61.25,5,62.63,5.36
		c11.45,3.02,20.83,9.55,29.86,16.95c13.48,11.04,27.14,21.86,41.01,32.39c8.9,6.76,19.05,11.36,30.1,13.33
		c10.74,1.92,21.48,2.05,32.16-1.15c17.32-5.19,34.9-5.65,52.57-1.88c3.82,0.81,7.54,2.14,11.36,2.91
		c16.26,3.28,31.83,1.5,46.58-6.43c12.92-6.94,24.32-15.97,35.69-25.12C352.21,28.13,362.73,20.23,373.28,12.11z M268.96,183.03
		c-3.12,5.85-4.65,12.06-4.27,18.73c0.41,7.26,3.73,10.64,10.96,10.41c9.06-0.28,17.44-3.08,25.25-7.62
		c11.18-6.48,19.22-15.56,23.24-28.01c0.59-1.84,0.13-3.16-1.24-4.24c-6.61-5.23-14.03-5.67-21.87-3.74
		c0.5,0.48,1.04,0.76,1.62,0.96c0.66,0.23,1.35,0.38,2.36,0.66c1.15,9.25,0.65,18.05-6.08,25.4c-4.78,5.22-12.9,9.15-16.49,7.94
		c0.55-0.64,1.07-1.22,1.56-1.82c2.8-3.43,1.92-6.6-2.28-7.99c-1.97-0.65-3.98-1.3-6.02-1.6c-2.45-0.36-3.58-1.88-3.75-4
		c-0.14-1.68,0.05-3.54,0.67-5.1c1.52-3.85,4.43-6.62,7.83-8.9c1.48-0.99,3.01-1.92,4.87-3.1
		C280.8,170.64,272.83,176.58,268.96,183.03z M177.38,179.71c0.5,3.04,1.12,6.07,1.46,9.13c0.19,1.75-0.96,2.71-2.65,3.19
		c-2.38,0.68-4.8,1.33-7.02,2.39c-3.13,1.49-3.67,4.4-1.62,7.2c0.52,0.71,1.1,1.38,1.65,2.07c-1.29,0.27-2.26,0.23-3.15-0.06
		c-14.33-4.75-20.25-14.41-20.44-28.08c-0.06-4.59,0.41-5.32,4.89-7.18c-8.36-0.14-16.65-2.05-23.12,5.3
		c2.72,6.45,5.03,13.03,9.47,18.56c7.74,9.65,17.82,15.43,29.81,18.11c4.86,1.08,9.69,2.37,14.72,1.41c3.38-0.65,4.8-2.06,5.17-5.41
		c0.31-2.78,0.44-5.6,0.43-8.4c-0.06-14.42-10.07-25.07-22.03-29.87c-1-0.4-2.16-0.39-3.25-0.57c-0.08,0.25-0.15,0.5-0.23,0.75
		C168.28,169.79,173.66,173.35,177.38,179.71z M342.53,62.18c10.28-10.57,20.56-21.14,30.83-31.73c3.5-3.61,7.01-7.23,10.41-10.94
		c0.81-0.88,1.22-2.13,2.04-3.63c-6.17,0.94-9.91,4.57-13.6,8.04c-11.05,10.38-22.03,20.85-32.85,31.47
		c-8.7,8.54-17.22,17.28-25.66,26.09c-4.34,4.54-8.04,9.6-9.23,16.01c-0.36,1.95-0.47,3.94-0.74,6.23
		c5.32-6.26,9.99-12.25,15.19-17.75C326.51,77.93,334.48,70.25,342.53,62.18z M145.82,93.12c-2.85-7.11-7.89-12.64-13.22-17.88
		c-15.63-15.37-31.32-30.69-47.17-45.83c-4.15-3.97-8.88-7.35-13.52-10.77c-1.51-1.11-3.58-1.45-5.39-2.14
		c-0.21,0.29-0.41,0.58-0.62,0.87c1.02,1.25,1.94,2.59,3.07,3.72c3.3,3.28,6.75,6.42,10.03,9.73c15.8,15.99,31.49,32.09,47.38,47.99
		c7.16,7.16,14.52,14.09,19.44,23.11c0.2,0.36,0.56,0.64,0.84,0.96c0.2-0.07,0.4-0.14,0.6-0.21
		C146.83,99.61,146.39,96.55,145.82,93.12z M162.8,186.27c1.16-4.64,1.07-9.3,0.06-14.14c-0.69,0.43-1.34,0.99-1.38,1.6
		c-0.26,3.68-0.45,7.36-0.47,11.05C161,185.36,161.98,185.95,162.8,186.27z M288.83,173.91c0.23,3.8-0.99,7.71,0.57,11.49
		c0.53-0.14,0.79-0.16,0.98-0.28c0.18-0.12,0.41-0.36,0.4-0.54c-0.14-3.63-0.31-7.26-0.54-10.88
		C290.23,173.61,289.36,173.59,288.83,173.91z"/>
</g>
</svg>
